<mxfile host="Electron" agent="Mozilla/5.0 (Windows NT 10.0; Win64; x64) AppleWebKit/537.36 (KHTML, like Gecko) draw.io/26.2.2 Chrome/134.0.6998.178 Electron/35.1.2 Safari/537.36" version="26.2.2">
  <diagram id="C5RBs43oDa-KdzZeNtuy" name="Page-1">
    <mxGraphModel dx="1225" dy="825" grid="1" gridSize="10" guides="1" tooltips="1" connect="1" arrows="1" fold="1" page="1" pageScale="1" pageWidth="827" pageHeight="1169" math="0" shadow="0">
      <root>
        <mxCell id="WIyWlLk6GJQsqaUBKTNV-0" />
        <mxCell id="WIyWlLk6GJQsqaUBKTNV-1" parent="WIyWlLk6GJQsqaUBKTNV-0" />
        <mxCell id="Ddw6NZ8UwagR2yQ2pxdl-19" value="&lt;p style=&quot;margin:0px;margin-top:4px;text-align:center;&quot;&gt;&lt;b&gt;Field&lt;/b&gt;&lt;/p&gt;" style="verticalAlign=top;align=left;overflow=fill;html=1;whiteSpace=wrap;" parent="WIyWlLk6GJQsqaUBKTNV-1" vertex="1">
          <mxGeometry x="380" y="40" width="140" height="60" as="geometry" />
        </mxCell>
        <mxCell id="Ddw6NZ8UwagR2yQ2pxdl-20" value="&lt;p style=&quot;margin:0px;margin-top:4px;text-align:center;&quot;&gt;&lt;b&gt;Name&lt;/b&gt;&lt;/p&gt;" style="verticalAlign=top;align=left;overflow=fill;html=1;whiteSpace=wrap;" parent="WIyWlLk6GJQsqaUBKTNV-1" vertex="1">
          <mxGeometry x="204" y="200" width="140" height="60" as="geometry" />
        </mxCell>
        <mxCell id="Ddw6NZ8UwagR2yQ2pxdl-21" value="&lt;p style=&quot;margin:0px;margin-top:4px;text-align:center;&quot;&gt;&lt;b&gt;Phone&lt;/b&gt;&lt;/p&gt;" style="verticalAlign=top;align=left;overflow=fill;html=1;whiteSpace=wrap;" parent="WIyWlLk6GJQsqaUBKTNV-1" vertex="1">
          <mxGeometry x="370" y="200" width="160" height="90" as="geometry" />
        </mxCell>
        <mxCell id="Ddw6NZ8UwagR2yQ2pxdl-22" value="" style="line;strokeWidth=1;fillColor=none;align=left;verticalAlign=middle;spacingTop=-1;spacingLeft=3;spacingRight=3;rotatable=0;labelPosition=right;points=[];portConstraint=eastwest;strokeColor=inherit;" parent="WIyWlLk6GJQsqaUBKTNV-1" vertex="1">
          <mxGeometry x="370" y="250" width="160" height="8" as="geometry" />
        </mxCell>
        <mxCell id="Ddw6NZ8UwagR2yQ2pxdl-23" value="+number_check()" style="text;align=center;fontStyle=1;verticalAlign=middle;spacingLeft=3;spacingRight=3;strokeColor=none;rotatable=0;points=[[0,0.5],[1,0.5]];portConstraint=eastwest;html=1;" parent="WIyWlLk6GJQsqaUBKTNV-1" vertex="1">
          <mxGeometry x="350" y="260" width="160" height="30" as="geometry" />
        </mxCell>
        <mxCell id="Ddw6NZ8UwagR2yQ2pxdl-24" value="&lt;p style=&quot;margin:0px;margin-top:4px;text-align:center;&quot;&gt;&lt;b&gt;Birthday&lt;/b&gt;&lt;/p&gt;" style="verticalAlign=top;align=left;overflow=fill;html=1;whiteSpace=wrap;" parent="WIyWlLk6GJQsqaUBKTNV-1" vertex="1">
          <mxGeometry x="570" y="200" width="140" height="60" as="geometry" />
        </mxCell>
        <mxCell id="Ddw6NZ8UwagR2yQ2pxdl-32" value="Record" style="swimlane;fontStyle=0;childLayout=stackLayout;horizontal=1;startSize=26;fillColor=none;horizontalStack=0;resizeParent=1;resizeParentMax=0;resizeLast=0;collapsible=1;marginBottom=0;whiteSpace=wrap;html=1;" parent="WIyWlLk6GJQsqaUBKTNV-1" vertex="1">
          <mxGeometry x="345" y="410" width="210" height="256" as="geometry" />
        </mxCell>
        <mxCell id="Ddw6NZ8UwagR2yQ2pxdl-87" value="" style="line;strokeWidth=1;fillColor=none;align=left;verticalAlign=middle;spacingTop=-1;spacingLeft=3;spacingRight=3;rotatable=0;labelPosition=right;points=[];portConstraint=eastwest;strokeColor=inherit;" parent="Ddw6NZ8UwagR2yQ2pxdl-32" vertex="1">
          <mxGeometry y="26" width="210" height="8" as="geometry" />
        </mxCell>
        <mxCell id="Ddw6NZ8UwagR2yQ2pxdl-34" value="+ phone" style="text;strokeColor=none;fillColor=none;align=left;verticalAlign=top;spacingLeft=4;spacingRight=4;overflow=hidden;rotatable=0;points=[[0,0.5],[1,0.5]];portConstraint=eastwest;whiteSpace=wrap;html=1;" parent="Ddw6NZ8UwagR2yQ2pxdl-32" vertex="1">
          <mxGeometry y="34" width="210" height="26" as="geometry" />
        </mxCell>
        <mxCell id="Ddw6NZ8UwagR2yQ2pxdl-35" value="+ birthday" style="text;strokeColor=none;fillColor=none;align=left;verticalAlign=top;spacingLeft=4;spacingRight=4;overflow=hidden;rotatable=0;points=[[0,0.5],[1,0.5]];portConstraint=eastwest;whiteSpace=wrap;html=1;" parent="Ddw6NZ8UwagR2yQ2pxdl-32" vertex="1">
          <mxGeometry y="60" width="210" height="30" as="geometry" />
        </mxCell>
        <mxCell id="Ddw6NZ8UwagR2yQ2pxdl-33" value="+ name" style="text;strokeColor=none;fillColor=none;align=left;verticalAlign=top;spacingLeft=4;spacingRight=4;overflow=hidden;rotatable=0;points=[[0,0.5],[1,0.5]];portConstraint=eastwest;whiteSpace=wrap;html=1;" parent="Ddw6NZ8UwagR2yQ2pxdl-32" vertex="1">
          <mxGeometry y="90" width="210" height="26" as="geometry" />
        </mxCell>
        <mxCell id="Ddw6NZ8UwagR2yQ2pxdl-43" value="" style="line;strokeWidth=1;fillColor=none;align=left;verticalAlign=middle;spacingTop=-1;spacingLeft=3;spacingRight=3;rotatable=0;labelPosition=right;points=[];portConstraint=eastwest;strokeColor=inherit;" parent="Ddw6NZ8UwagR2yQ2pxdl-32" vertex="1">
          <mxGeometry y="116" width="210" height="8" as="geometry" />
        </mxCell>
        <mxCell id="Ddw6NZ8UwagR2yQ2pxdl-36" value="" style="line;strokeWidth=1;fillColor=none;align=left;verticalAlign=middle;spacingTop=-1;spacingLeft=3;spacingRight=3;rotatable=0;labelPosition=right;points=[];portConstraint=eastwest;strokeColor=inherit;" parent="Ddw6NZ8UwagR2yQ2pxdl-32" vertex="1">
          <mxGeometry y="124" width="210" as="geometry" />
        </mxCell>
        <mxCell id="Ddw6NZ8UwagR2yQ2pxdl-42" value="+ add_phone()" style="text;strokeColor=none;fillColor=none;align=left;verticalAlign=top;spacingLeft=4;spacingRight=4;overflow=hidden;rotatable=0;points=[[0,0.5],[1,0.5]];portConstraint=eastwest;whiteSpace=wrap;html=1;" parent="Ddw6NZ8UwagR2yQ2pxdl-32" vertex="1">
          <mxGeometry y="124" width="210" height="26" as="geometry" />
        </mxCell>
        <mxCell id="Ddw6NZ8UwagR2yQ2pxdl-41" value="+ edit_phone()" style="text;strokeColor=none;fillColor=none;align=left;verticalAlign=top;spacingLeft=4;spacingRight=4;overflow=hidden;rotatable=0;points=[[0,0.5],[1,0.5]];portConstraint=eastwest;whiteSpace=wrap;html=1;" parent="Ddw6NZ8UwagR2yQ2pxdl-32" vertex="1">
          <mxGeometry y="150" width="210" height="26" as="geometry" />
        </mxCell>
        <mxCell id="Ddw6NZ8UwagR2yQ2pxdl-40" value="+ remove_phone()" style="text;strokeColor=none;fillColor=none;align=left;verticalAlign=top;spacingLeft=4;spacingRight=4;overflow=hidden;rotatable=0;points=[[0,0.5],[1,0.5]];portConstraint=eastwest;whiteSpace=wrap;html=1;" parent="Ddw6NZ8UwagR2yQ2pxdl-32" vertex="1">
          <mxGeometry y="176" width="210" height="26" as="geometry" />
        </mxCell>
        <mxCell id="Ddw6NZ8UwagR2yQ2pxdl-39" value="+ find_phone()" style="text;strokeColor=none;fillColor=none;align=left;verticalAlign=top;spacingLeft=4;spacingRight=4;overflow=hidden;rotatable=0;points=[[0,0.5],[1,0.5]];portConstraint=eastwest;whiteSpace=wrap;html=1;" parent="Ddw6NZ8UwagR2yQ2pxdl-32" vertex="1">
          <mxGeometry y="202" width="210" height="26" as="geometry" />
        </mxCell>
        <mxCell id="Ddw6NZ8UwagR2yQ2pxdl-38" value="+ add_birhday()" style="text;strokeColor=none;fillColor=none;align=left;verticalAlign=top;spacingLeft=4;spacingRight=4;overflow=hidden;rotatable=0;points=[[0,0.5],[1,0.5]];portConstraint=eastwest;whiteSpace=wrap;html=1;" parent="Ddw6NZ8UwagR2yQ2pxdl-32" vertex="1">
          <mxGeometry y="228" width="210" height="28" as="geometry" />
        </mxCell>
        <mxCell id="Ddw6NZ8UwagR2yQ2pxdl-44" value="&lt;p style=&quot;margin:0px;margin-top:4px;text-align:center;&quot;&gt;&lt;b&gt;AddressBook(UserDict)&lt;/b&gt;&lt;/p&gt;" style="verticalAlign=top;align=left;overflow=fill;html=1;whiteSpace=wrap;" parent="WIyWlLk6GJQsqaUBKTNV-1" vertex="1">
          <mxGeometry x="305" y="760" width="290" height="202" as="geometry" />
        </mxCell>
        <mxCell id="Ddw6NZ8UwagR2yQ2pxdl-45" value="" style="line;strokeWidth=1;fillColor=none;align=left;verticalAlign=middle;spacingTop=-1;spacingLeft=3;spacingRight=3;rotatable=0;labelPosition=right;points=[];portConstraint=eastwest;strokeColor=inherit;" parent="WIyWlLk6GJQsqaUBKTNV-1" vertex="1">
          <mxGeometry x="305" y="790" width="285" height="8" as="geometry" />
        </mxCell>
        <mxCell id="Ddw6NZ8UwagR2yQ2pxdl-46" value="+ add_record()" style="text;strokeColor=none;fillColor=none;align=left;verticalAlign=top;spacingLeft=4;spacingRight=4;overflow=hidden;rotatable=0;points=[[0,0.5],[1,0.5]];portConstraint=eastwest;whiteSpace=wrap;html=1;" parent="WIyWlLk6GJQsqaUBKTNV-1" vertex="1">
          <mxGeometry x="305" y="810" width="285" height="26" as="geometry" />
        </mxCell>
        <mxCell id="Ddw6NZ8UwagR2yQ2pxdl-47" value="+ find()" style="text;strokeColor=none;fillColor=none;align=left;verticalAlign=top;spacingLeft=4;spacingRight=4;overflow=hidden;rotatable=0;points=[[0,0.5],[1,0.5]];portConstraint=eastwest;whiteSpace=wrap;html=1;" parent="WIyWlLk6GJQsqaUBKTNV-1" vertex="1">
          <mxGeometry x="305" y="840" width="330" height="26" as="geometry" />
        </mxCell>
        <mxCell id="Ddw6NZ8UwagR2yQ2pxdl-48" value="+ delete()" style="text;strokeColor=none;fillColor=none;align=left;verticalAlign=top;spacingLeft=4;spacingRight=4;overflow=hidden;rotatable=0;points=[[0,0.5],[1,0.5]];portConstraint=eastwest;whiteSpace=wrap;html=1;" parent="WIyWlLk6GJQsqaUBKTNV-1" vertex="1">
          <mxGeometry x="305" y="866" width="330" height="26" as="geometry" />
        </mxCell>
        <mxCell id="Ddw6NZ8UwagR2yQ2pxdl-49" value="+ get_upcoming_birthday()" style="text;strokeColor=none;fillColor=none;align=left;verticalAlign=top;spacingLeft=4;spacingRight=4;overflow=hidden;rotatable=0;points=[[0,0.5],[1,0.5]];portConstraint=eastwest;whiteSpace=wrap;html=1;" parent="WIyWlLk6GJQsqaUBKTNV-1" vertex="1">
          <mxGeometry x="305" y="892" width="330" height="26" as="geometry" />
        </mxCell>
        <mxCell id="Ddw6NZ8UwagR2yQ2pxdl-92" value="1" style="endArrow=open;html=1;endSize=12;startArrow=diamondThin;startSize=14;startFill=0;edgeStyle=orthogonalEdgeStyle;align=left;verticalAlign=bottom;rounded=0;exitX=0.467;exitY=0.004;exitDx=0;exitDy=0;exitPerimeter=0;entryX=0.5;entryY=1;entryDx=0;entryDy=0;" parent="WIyWlLk6GJQsqaUBKTNV-1" source="Ddw6NZ8UwagR2yQ2pxdl-32" target="Ddw6NZ8UwagR2yQ2pxdl-20" edge="1">
          <mxGeometry x="-1" y="3" relative="1" as="geometry">
            <mxPoint x="380" y="340" as="sourcePoint" />
            <mxPoint x="540" y="340" as="targetPoint" />
          </mxGeometry>
        </mxCell>
        <mxCell id="Ddw6NZ8UwagR2yQ2pxdl-93" value="1" style="endArrow=open;html=1;endSize=12;startArrow=diamondThin;startSize=14;startFill=0;edgeStyle=orthogonalEdgeStyle;align=left;verticalAlign=bottom;rounded=0;entryX=0.5;entryY=1;entryDx=0;entryDy=0;exitX=0.75;exitY=0;exitDx=0;exitDy=0;" parent="WIyWlLk6GJQsqaUBKTNV-1" source="Ddw6NZ8UwagR2yQ2pxdl-32" target="Ddw6NZ8UwagR2yQ2pxdl-24" edge="1">
          <mxGeometry x="-1" y="3" relative="1" as="geometry">
            <mxPoint x="380" y="340" as="sourcePoint" />
            <mxPoint x="540" y="340" as="targetPoint" />
          </mxGeometry>
        </mxCell>
        <mxCell id="Ddw6NZ8UwagR2yQ2pxdl-98" value="1" style="endArrow=open;html=1;endSize=12;startArrow=diamondThin;startSize=14;startFill=0;edgeStyle=orthogonalEdgeStyle;align=left;verticalAlign=bottom;rounded=0;entryX=0.588;entryY=1.022;entryDx=0;entryDy=0;entryPerimeter=0;exitX=0.571;exitY=-0.012;exitDx=0;exitDy=0;exitPerimeter=0;" parent="WIyWlLk6GJQsqaUBKTNV-1" source="Ddw6NZ8UwagR2yQ2pxdl-32" target="Ddw6NZ8UwagR2yQ2pxdl-21" edge="1">
          <mxGeometry x="-1" y="3" relative="1" as="geometry">
            <mxPoint x="380" y="340" as="sourcePoint" />
            <mxPoint x="540" y="340" as="targetPoint" />
            <Array as="points">
              <mxPoint x="465" y="340" />
            </Array>
          </mxGeometry>
        </mxCell>
        <mxCell id="Ddw6NZ8UwagR2yQ2pxdl-101" value="1" style="endArrow=open;html=1;endSize=12;startArrow=diamondThin;startSize=14;startFill=1;edgeStyle=orthogonalEdgeStyle;align=left;verticalAlign=bottom;rounded=0;" parent="WIyWlLk6GJQsqaUBKTNV-1" edge="1">
          <mxGeometry x="-0.5652" relative="1" as="geometry">
            <mxPoint x="460" y="760" as="sourcePoint" />
            <mxPoint x="460" y="668" as="targetPoint" />
            <mxPoint as="offset" />
          </mxGeometry>
        </mxCell>
        <mxCell id="j4pSHL34HGdgD1vUc7b3-0" value="" style="line;strokeWidth=1;fillColor=none;align=left;verticalAlign=middle;spacingTop=-1;spacingLeft=3;spacingRight=3;rotatable=0;labelPosition=right;points=[];portConstraint=eastwest;strokeColor=inherit;" parent="WIyWlLk6GJQsqaUBKTNV-1" vertex="1">
          <mxGeometry x="380" y="70" width="130" height="8" as="geometry" />
        </mxCell>
        <mxCell id="j4pSHL34HGdgD1vUc7b3-1" value="+ value" style="text;strokeColor=none;fillColor=none;align=left;verticalAlign=top;spacingLeft=4;spacingRight=4;overflow=hidden;rotatable=0;points=[[0,0.5],[1,0.5]];portConstraint=eastwest;whiteSpace=wrap;html=1;" parent="WIyWlLk6GJQsqaUBKTNV-1" vertex="1">
          <mxGeometry x="370" y="224" width="160" height="26" as="geometry" />
        </mxCell>
        <mxCell id="j4pSHL34HGdgD1vUc7b3-3" value="+ value" style="text;strokeColor=none;fillColor=none;align=left;verticalAlign=top;spacingLeft=4;spacingRight=4;overflow=hidden;rotatable=0;points=[[0,0.5],[1,0.5]];portConstraint=eastwest;whiteSpace=wrap;html=1;" parent="WIyWlLk6GJQsqaUBKTNV-1" vertex="1">
          <mxGeometry x="570" y="230" width="140" height="30" as="geometry" />
        </mxCell>
        <mxCell id="L88WVcGBvhnG7Fess4ni-3" value="" style="endArrow=none;html=1;rounded=0;" edge="1" parent="WIyWlLk6GJQsqaUBKTNV-1">
          <mxGeometry width="50" height="50" relative="1" as="geometry">
            <mxPoint x="680" y="160" as="sourcePoint" />
            <mxPoint x="270" y="160" as="targetPoint" />
            <Array as="points">
              <mxPoint x="460" y="160" />
            </Array>
          </mxGeometry>
        </mxCell>
        <mxCell id="L88WVcGBvhnG7Fess4ni-4" value="" style="endArrow=none;html=1;rounded=0;" edge="1" parent="WIyWlLk6GJQsqaUBKTNV-1">
          <mxGeometry width="50" height="50" relative="1" as="geometry">
            <mxPoint x="270" y="200" as="sourcePoint" />
            <mxPoint x="270" y="160" as="targetPoint" />
          </mxGeometry>
        </mxCell>
        <mxCell id="L88WVcGBvhnG7Fess4ni-5" value="" style="endArrow=none;html=1;rounded=0;" edge="1" parent="WIyWlLk6GJQsqaUBKTNV-1">
          <mxGeometry width="50" height="50" relative="1" as="geometry">
            <mxPoint x="680" y="202" as="sourcePoint" />
            <mxPoint x="680" y="160" as="targetPoint" />
          </mxGeometry>
        </mxCell>
        <mxCell id="L88WVcGBvhnG7Fess4ni-7" value="" style="endArrow=block;endSize=16;endFill=0;html=1;rounded=0;entryX=0.5;entryY=1;entryDx=0;entryDy=0;exitX=0.5;exitY=0;exitDx=0;exitDy=0;" edge="1" parent="WIyWlLk6GJQsqaUBKTNV-1" source="Ddw6NZ8UwagR2yQ2pxdl-21" target="Ddw6NZ8UwagR2yQ2pxdl-19">
          <mxGeometry width="160" relative="1" as="geometry">
            <mxPoint x="330" y="330" as="sourcePoint" />
            <mxPoint x="490" y="330" as="targetPoint" />
          </mxGeometry>
        </mxCell>
      </root>
    </mxGraphModel>
  </diagram>
</mxfile>
